# xmcd
#
# Track frame offsets: 
#        150
#        23922
#        43587
#        67770
#        91002
#        115910
#        137555
#        160725
#        184682
#        209292
#
# Disc length: 2967 seconds
#
# Revision: 5
# Processed by: cddbd v1.5.2PL0 Copyright (c) Steve Scherf et al.
# Submitted via: ExactAudioCopy v0.95a5
#
DISCID=780b950a
DTITLE=Chuck Loeb - All There Is
DYEAR=2002
DGENRE=Fusion
TTITLE0=As Is
TTITLE1=Sierra Nevada
TTITLE2=True Or False
TTITLE3=Golden Heart
TTITLE4=Sarao
TTITLE5=Fundamentally Sound
TTITLE6=In The Hands
TTITLE7=Tenerife Blue
TTITLE8=Bread and Butter
TTITLE9=Love Is All There Is
EXTD=YEAR: 2002
EXTT0=
EXTT1=
EXTT2=
EXTT3=
EXTT4=
EXTT5=
EXTT6=
EXTT7=
EXTT8=
EXTT9=
PLAYORDER=
